<?xml version="1.0" standalone="no"?><!DOCTYPE svg PUBLIC "-//W3C//DTD SVG 1.1//EN" "http://www.w3.org/Graphics/SVG/1.1/DTD/svg11.dtd"><svg class="icon" style="" viewBox="0 0 1024 1024" version="1.1" xmlns="http://www.w3.org/2000/svg" p-id="1855" xmlns:xlink="http://www.w3.org/1999/xlink" width="200" height="200"><defs><style type="text/css"><![CDATA[

]]></style></defs><path d="M511.584 57.504c-251.04 0-455.264 204.224-455.264 455.232 0 251.04 204.224 455.264 455.264 455.264 251.04 0 455.264-204.224 455.264-455.264C966.848 261.728 762.624 57.504 511.584 57.504zM511.584 920c-224.576 0-407.264-182.688-407.264-407.264 0-224.544 182.688-407.232 407.264-407.232s407.264 182.688 407.264 407.232C918.848 737.312 736.16 920 511.584 920z" p-id="1856" fill="#ffffff"></path><path d="M683.296 480 544 480l0-138.976c0-13.248-18.752-24-32-24-13.248 0-32 10.752-32 24L480 480l-140.128 0c-13.248 0-24 18.752-24 32 0 13.248 10.752 32 24 32L480 544l0 140.48c0 13.248 18.752 24 32 24 13.248 0 32-10.752 32-24L544 544l139.296 0c13.248 0 24-18.752 24-32C707.296 498.752 696.576 480 683.296 480z" p-id="1857" fill="#ffffff"></path></svg>