<?xml version="1.0" standalone="no"?><!DOCTYPE svg PUBLIC "-//W3C//DTD SVG 1.1//EN" "http://www.w3.org/Graphics/SVG/1.1/DTD/svg11.dtd"><svg class="icon" style="" viewBox="0 0 1024 1024" version="1.1" xmlns="http://www.w3.org/2000/svg" p-id="2663" xmlns:xlink="http://www.w3.org/1999/xlink" width="200" height="200"><defs><style type="text/css"><![CDATA[

]]></style></defs><path d="M511.946276 64.833611C258.078335 64.833611 51.557748 271.371594 51.557748 525.225209c0 253.851569 206.520587 460.396715 460.388529 460.396715C765.783519 985.621924 972.338898 779.076778 972.338898 525.225209 972.338898 271.371594 765.783519 64.833611 511.946276 64.833611zM511.946276 935.388846c-226.172159 0-410.165684-183.991478-410.165684-410.163637 0-226.174206 183.992501-410.16773 410.165684-410.16773 226.140437 0 410.16773 183.993524 410.16773 410.16773C922.114007 751.397369 738.086713 935.388846 511.946276 935.388846z" p-id="2664" fill="#ffffff"></path><path d="M511.946276 642.412189c55.457056 0 100.44876-44.959981 100.44876-100.446713L612.395036 324.326667c0-55.488779-44.991704-100.44876-100.44876-100.44876-55.487755 0-100.446713 44.959981-100.446713 100.44876l0 217.639832C411.499563 597.453231 456.458521 642.412189 511.946276 642.412189z" p-id="2665" fill="#ffffff"></path><path d="M645.878638 541.965475l0.132006 0c0 72.915683-58.532091 132.263349-131.022079 133.932362l-6.114255 0c-72.525804-1.669012-131.023102-61.016679-131.023102-133.932362l0.162706 0 0-100.44876-33.482579 0 0 100.44876 0.12996 0c0 86.551238 66.116837 157.964708 150.543691 166.399821l0 84.71952-100.44876 0 0 33.485649 234.380098 0L629.136326 793.08584l-100.44876 0L528.687566 708.36632c84.361363-8.435113 150.510946-79.848583 150.510946-166.399821l0.161682 0 0-100.44876-33.482579 0L645.877615 541.965475z" p-id="2666" fill="#ffffff"></path></svg>