<?xml version="1.0" standalone="no"?><!DOCTYPE svg PUBLIC "-//W3C//DTD SVG 1.1//EN" "http://www.w3.org/Graphics/SVG/1.1/DTD/svg11.dtd"><svg class="icon" style="" viewBox="0 0 1241 1024" version="1.1" xmlns="http://www.w3.org/2000/svg" p-id="1873" xmlns:xlink="http://www.w3.org/1999/xlink" width="242.3828125" height="200"><defs><style type="text/css"><![CDATA[

]]></style></defs><path d="M1233.8596 472.860158l-145.482642 149.439425c-11.964829 11.82311-31.370828 11.82311-43.335657 0l-144.522735-149.439425c-17.176294-20.498178-5.698977-27.79763 6.265852-39.637747l132.329267 0C1002.601304 231.621095 829.024368 78.763417 619.991328 78.763417c-161.610219 0-302.183729 91.319684-374.541465 225.916449l-72.189563-29.33386C257.407133 111.795187 425.717807 0 619.991328 0c251.934093 0 460.097926 187.952871 497.475733 433.222411l110.119129 0C1239.558577 445.062528 1245.824428 461.0276 1233.8596 472.860158L1233.8596 472.860158zM196.585291 441.08307l145.482642 149.431867c11.964829 11.834448 5.698977 27.812747-6.27341 39.639636l-125.967047 0c50.619993 181.806063 214.962546 315.070673 410.163851 315.070673 148.545654 0 279.229095-77.227187 355.594633-194.218723l72.918942 29.628635c-88.817879 145.858669-247.261159 243.364842-428.513575 243.364842-238.244077 0-436.986457-168.172734-489.526265-393.845427l-115.470423 0c-11.972387-11.826889-23.444035-19.132011-6.267741-39.639636l144.524625-149.431867C165.216352 429.252401 184.620462 429.252401 196.585291 441.08307L196.585291 441.08307zM196.585291 441.08307" p-id="1874" fill="#ffffff"></path></svg>