<?xml version="1.0" standalone="no"?><!DOCTYPE svg PUBLIC "-//W3C//DTD SVG 1.1//EN" "http://www.w3.org/Graphics/SVG/1.1/DTD/svg11.dtd"><svg width="200" height="200" viewBox="0 0 200 200" version="1.1" xmlns="http://www.w3.org/2000/svg" xmlns:xlink="http://www.w3.org/1999/xlink"><defs><style type="text/css"><![CDATA[
@font-face { font-family: ifont; src: url(http://at.alicdn.com/t/font_1442373896_4754455.eot?#iefix) format(embedded-opentype), url(http://at.alicdn.com/t/font_1442373896_4754455.woff) format(woff), url(http://at.alicdn.com/t/font_1442373896_4754455.ttf) format(truetype), url(http://at.alicdn.com/t/font_1442373896_4754455.svg#ifont) format(svg); }

]]></style></defs><g class="transform-group"><g transform="scale(0.1953125, 0.1953125)"><path d="M668.255275 512c0-17.540492-14.175861-31.68156-31.647791-31.68156l-94.924953 0L541.682531 385.410883c0-17.47193-14.174837-31.68156-31.646767-31.68156-17.49035 0-31.630395 14.20963-31.630395 31.68156l0 94.907557-94.941326 0c-17.489326 0-31.647791 14.141068-31.647791 31.68156 0 17.47193 14.175861 31.612998 31.647791 31.612998l94.941326 0 0 94.907557c0 17.47193 14.140045 31.68156 31.630395 31.68156 17.47193 0 31.646767-14.20963 31.646767-31.68156l0-94.907557 94.924953 0C654.080437 543.612998 668.255275 529.47193 668.255275 512zM274.671245 163.91421l-94.924953 0c-8.735965 0-15.824407 7.071046-15.824407 15.84078l0 94.907557c0 8.702196 7.088442 15.839757 15.824407 15.839757s15.823384-7.138584 15.823384-15.839757l0-79.135338 79.101569 0c8.735965 0 15.823384-7.070023 15.823384-15.772218C290.494629 170.985256 283.40721 163.91421 274.671245 163.91421zM464.5365 828.403207l-94.92393 0c-8.736988 0-15.824407 7.071046-15.824407 15.84078 0 8.702196 7.087419 15.839757 15.824407 15.839757l94.92393 0c8.703219 0 15.824407-7.138584 15.824407-15.839757C480.360907 835.475276 473.239719 828.403207 464.5365 828.403207zM179.746292 670.202115c8.735965 0 15.823384-7.070023 15.823384-15.839757l0-94.907557c0-8.769734-7.087419-15.84078-15.823384-15.84078s-15.824407 7.071046-15.824407 15.84078l0 94.907557C163.921885 663.132092 171.010327 670.202115 179.746292 670.202115zM179.746292 480.31844c8.735965 0 15.823384-7.070023 15.823384-15.772218l0-94.976118c0-8.702196-7.087419-15.84078-15.823384-15.84078s-15.824407 7.139607-15.824407 15.84078l0 94.976118C163.921885 473.248418 171.010327 480.31844 179.746292 480.31844zM274.671245 828.403207l-79.101569 0 0-79.066777c0-8.769734-7.087419-15.84078-15.823384-15.84078s-15.824407 7.071046-15.824407 15.84078l0 94.907557c0 8.702196 7.088442 15.839757 15.824407 15.839757l94.924953 0c8.735965 0 15.823384-7.138584 15.823384-15.839757C290.494629 835.475276 283.40721 828.403207 274.671245 828.403207zM369.612571 195.527209l94.92393 0c8.703219 0 15.824407-7.070023 15.824407-15.772218 0-8.769734-7.121188-15.84078-15.824407-15.84078l-94.92393 0c-8.736988 0-15.824407 7.071046-15.824407 15.84078C353.788164 188.457186 360.875582 195.527209 369.612571 195.527209zM844.251661 353.729324c-8.719592 0-15.805988 7.139607-15.805988 15.84078l0 94.976118c0 8.702196 7.087419 15.772218 15.805988 15.772218s15.824407-7.070023 15.824407-15.772218l0-94.976118C860.076068 360.868931 852.971253 353.729324 844.251661 353.729324zM844.251661 543.612998c-8.719592 0-15.805988 7.071046-15.805988 15.84078l0 94.907557c0 8.769734 7.087419 15.839757 15.805988 15.839757s15.824407-7.070023 15.824407-15.839757l0-94.907557C860.076068 550.684044 852.971253 543.612998 844.251661 543.612998zM844.251661 163.91421l-94.924953 0c-8.735965 0-15.823384 7.071046-15.823384 15.84078 0 8.702196 7.087419 15.772218 15.823384 15.772218l79.117942 0 0 79.135338c0 8.702196 7.087419 15.839757 15.805988 15.839757s15.824407-7.138584 15.824407-15.839757l0-94.907557C860.076068 170.985256 852.971253 163.91421 844.251661 163.91421zM844.251661 733.49565c-8.719592 0-15.805988 7.071046-15.805988 15.84078l0 79.066777-79.117942 0c-8.735965 0-15.823384 7.071046-15.823384 15.84078 0 8.702196 7.087419 15.839757 15.823384 15.839757l94.924953 0c8.719592 0 15.824407-7.138584 15.824407-15.839757l0-94.907557C860.076068 740.566696 852.971253 733.49565 844.251661 733.49565zM654.402779 828.403207l-94.941326 0c-8.719592 0-15.823384 7.071046-15.823384 15.84078 0 8.702196 7.103792 15.839757 15.823384 15.839757l94.941326 0c8.702196 0 15.824407-7.138584 15.824407-15.839757C670.227186 835.475276 663.104975 828.403207 654.402779 828.403207zM654.402779 163.91421l-94.941326 0c-8.719592 0-15.823384 7.071046-15.823384 15.84078 0 8.702196 7.103792 15.772218 15.823384 15.772218l94.941326 0c8.702196 0 15.824407-7.070023 15.824407-15.772218C670.227186 170.985256 663.104975 163.91421 654.402779 163.91421z" fill="#cccccc"></path></g></g></svg>